<mxfile host="app.diagrams.net" agent="Mozilla/5.0 (Windows NT 10.0; Win64; x64) AppleWebKit/537.36 (KHTML, like Gecko) Chrome/141.0.0.0 Safari/537.36" version="28.2.8">
  <diagram name="Page-1" id="fqJBZb1qAZs4rQD1kvU_">
    <mxGraphModel grid="0" page="0" gridSize="10" guides="1" tooltips="1" connect="1" arrows="1" fold="1" pageScale="1" pageWidth="850" pageHeight="1100" math="0" shadow="0">
      <root>
        <mxCell id="0" />
        <mxCell id="1" parent="0" />
        <mxCell id="KrmY5NOC-e03t4C5Ymkm-3" value="" style="group" connectable="0" vertex="1" parent="1">
          <mxGeometry x="-2606" y="-740" width="764" height="736" as="geometry" />
        </mxCell>
        <mxCell id="KrmY5NOC-e03t4C5Ymkm-4" value="" style="rounded=0;whiteSpace=wrap;html=1;" vertex="1" parent="KrmY5NOC-e03t4C5Ymkm-3">
          <mxGeometry width="764" height="736" as="geometry" />
        </mxCell>
        <mxCell id="KrmY5NOC-e03t4C5Ymkm-5" value="" style="rounded=0;whiteSpace=wrap;html=1;dashed=1;" vertex="1" parent="KrmY5NOC-e03t4C5Ymkm-3">
          <mxGeometry x="27" y="24" width="687" height="496" as="geometry" />
        </mxCell>
        <mxCell id="KrmY5NOC-e03t4C5Ymkm-6" value="" style="rounded=0;whiteSpace=wrap;html=1;dashed=1;" vertex="1" parent="KrmY5NOC-e03t4C5Ymkm-3">
          <mxGeometry x="475" y="518" width="239" height="194" as="geometry" />
        </mxCell>
        <mxCell id="KrmY5NOC-e03t4C5Ymkm-7" value="" style="edgeStyle=none;curved=1;rounded=0;orthogonalLoop=1;jettySize=auto;html=1;fontSize=12;startSize=8;endSize=8;" edge="1" parent="KrmY5NOC-e03t4C5Ymkm-3" source="KrmY5NOC-e03t4C5Ymkm-8" target="KrmY5NOC-e03t4C5Ymkm-33">
          <mxGeometry relative="1" as="geometry" />
        </mxCell>
        <mxCell id="KrmY5NOC-e03t4C5Ymkm-8" value="Handmade Resistive Sensor setup" style="rounded=0;whiteSpace=wrap;html=1;" vertex="1" parent="KrmY5NOC-e03t4C5Ymkm-3">
          <mxGeometry x="552.5" y="61" width="135" height="66" as="geometry" />
        </mxCell>
        <mxCell id="KrmY5NOC-e03t4C5Ymkm-9" value="" style="rounded=0;whiteSpace=wrap;html=1;" vertex="1" parent="KrmY5NOC-e03t4C5Ymkm-3">
          <mxGeometry x="76.5" y="42" width="315" height="195" as="geometry" />
        </mxCell>
        <mxCell id="KrmY5NOC-e03t4C5Ymkm-10" value="" style="rounded=0;whiteSpace=wrap;html=1;" vertex="1" parent="KrmY5NOC-e03t4C5Ymkm-3">
          <mxGeometry x="307" y="74" width="84.5" height="60" as="geometry" />
        </mxCell>
        <mxCell id="KrmY5NOC-e03t4C5Ymkm-11" value="" style="group" connectable="0" vertex="1" parent="KrmY5NOC-e03t4C5Ymkm-3">
          <mxGeometry x="53" y="572" width="152" height="75" as="geometry" />
        </mxCell>
        <mxCell id="KrmY5NOC-e03t4C5Ymkm-12" value="" style="rounded=0;whiteSpace=wrap;html=1;" vertex="1" parent="KrmY5NOC-e03t4C5Ymkm-11">
          <mxGeometry width="152" height="72" as="geometry" />
        </mxCell>
        <mxCell id="KrmY5NOC-e03t4C5Ymkm-13" value="2" style="rounded=0;whiteSpace=wrap;html=1;" vertex="1" parent="KrmY5NOC-e03t4C5Ymkm-11">
          <mxGeometry x="19" width="19" height="19" as="geometry" />
        </mxCell>
        <mxCell id="KrmY5NOC-e03t4C5Ymkm-14" value="3" style="rounded=0;whiteSpace=wrap;html=1;" vertex="1" parent="KrmY5NOC-e03t4C5Ymkm-11">
          <mxGeometry x="38" width="19" height="19" as="geometry" />
        </mxCell>
        <mxCell id="KrmY5NOC-e03t4C5Ymkm-15" value="4" style="rounded=0;whiteSpace=wrap;html=1;" vertex="1" parent="KrmY5NOC-e03t4C5Ymkm-11">
          <mxGeometry x="57" width="19" height="19" as="geometry" />
        </mxCell>
        <mxCell id="KrmY5NOC-e03t4C5Ymkm-16" value="5" style="rounded=0;whiteSpace=wrap;html=1;" vertex="1" parent="KrmY5NOC-e03t4C5Ymkm-11">
          <mxGeometry x="76" width="19" height="19" as="geometry" />
        </mxCell>
        <mxCell id="KrmY5NOC-e03t4C5Ymkm-17" value="6" style="rounded=0;whiteSpace=wrap;html=1;" vertex="1" parent="KrmY5NOC-e03t4C5Ymkm-11">
          <mxGeometry x="95" width="19" height="19" as="geometry" />
        </mxCell>
        <mxCell id="KrmY5NOC-e03t4C5Ymkm-18" value="7" style="rounded=0;whiteSpace=wrap;html=1;" vertex="1" parent="KrmY5NOC-e03t4C5Ymkm-11">
          <mxGeometry x="114" width="19" height="19" as="geometry" />
        </mxCell>
        <mxCell id="KrmY5NOC-e03t4C5Ymkm-19" value="8" style="rounded=0;whiteSpace=wrap;html=1;" vertex="1" parent="KrmY5NOC-e03t4C5Ymkm-11">
          <mxGeometry x="133" width="19" height="19" as="geometry" />
        </mxCell>
        <mxCell id="KrmY5NOC-e03t4C5Ymkm-20" value="1" style="rounded=0;whiteSpace=wrap;html=1;" vertex="1" parent="KrmY5NOC-e03t4C5Ymkm-11">
          <mxGeometry width="19" height="19" as="geometry" />
        </mxCell>
        <mxCell id="KrmY5NOC-e03t4C5Ymkm-21" value="Digital" style="rounded=0;whiteSpace=wrap;html=1;" vertex="1" parent="KrmY5NOC-e03t4C5Ymkm-11">
          <mxGeometry y="19" width="95" height="26" as="geometry" />
        </mxCell>
        <mxCell id="KrmY5NOC-e03t4C5Ymkm-22" value="&lt;font style=&quot;font-size: 8px;&quot;&gt;ANALOG&lt;/font&gt;" style="rounded=0;whiteSpace=wrap;html=1;" vertex="1" parent="KrmY5NOC-e03t4C5Ymkm-11">
          <mxGeometry x="95" y="19" width="38" height="26" as="geometry" />
        </mxCell>
        <mxCell id="KrmY5NOC-e03t4C5Ymkm-23" value="CONNECTOR 1" style="text;html=1;align=center;verticalAlign=middle;whiteSpace=wrap;rounded=0;" vertex="1" parent="KrmY5NOC-e03t4C5Ymkm-11">
          <mxGeometry x="21.75" y="45" width="108.5" height="30" as="geometry" />
        </mxCell>
        <mxCell id="KrmY5NOC-e03t4C5Ymkm-24" value="PIC18F57Q43 Curiosity Nano" style="text;html=1;align=center;verticalAlign=middle;whiteSpace=wrap;rounded=0;" vertex="1" parent="KrmY5NOC-e03t4C5Ymkm-3">
          <mxGeometry x="150" y="51" width="168" height="23" as="geometry" />
        </mxCell>
        <mxCell id="KrmY5NOC-e03t4C5Ymkm-25" value="RA2" style="whiteSpace=wrap;html=1;aspect=fixed;" vertex="1" parent="KrmY5NOC-e03t4C5Ymkm-3">
          <mxGeometry x="356.5" y="82" width="35" height="35" as="geometry" />
        </mxCell>
        <mxCell id="KrmY5NOC-e03t4C5Ymkm-26" value="" style="rounded=0;whiteSpace=wrap;html=1;" vertex="1" parent="KrmY5NOC-e03t4C5Ymkm-3">
          <mxGeometry x="76" y="193" width="316" height="44" as="geometry" />
        </mxCell>
        <mxCell id="KrmY5NOC-e03t4C5Ymkm-27" value="Digital I/O" style="text;html=1;align=center;verticalAlign=middle;whiteSpace=wrap;rounded=0;" vertex="1" parent="KrmY5NOC-e03t4C5Ymkm-3">
          <mxGeometry x="196.5" y="197" width="60" height="14" as="geometry" />
        </mxCell>
        <mxCell id="KrmY5NOC-e03t4C5Ymkm-28" style="edgeStyle=elbowEdgeStyle;rounded=0;orthogonalLoop=1;jettySize=auto;html=1;fontSize=12;startSize=8;endSize=8;elbow=vertical;exitX=0.5;exitY=0;exitDx=0;exitDy=0;entryX=0.5;entryY=1;entryDx=0;entryDy=0;" edge="1" parent="KrmY5NOC-e03t4C5Ymkm-3" source="KrmY5NOC-e03t4C5Ymkm-13" target="KrmY5NOC-e03t4C5Ymkm-56">
          <mxGeometry relative="1" as="geometry">
            <mxPoint x="-150" y="397" as="targetPoint" />
          </mxGeometry>
        </mxCell>
        <mxCell id="KrmY5NOC-e03t4C5Ymkm-29" value="RA1" style="rounded=0;whiteSpace=wrap;html=1;" vertex="1" parent="KrmY5NOC-e03t4C5Ymkm-3">
          <mxGeometry x="76.5" y="218" width="36" height="19" as="geometry" />
        </mxCell>
        <mxCell id="KrmY5NOC-e03t4C5Ymkm-30" style="edgeStyle=elbowEdgeStyle;rounded=0;orthogonalLoop=1;jettySize=auto;html=1;fontSize=12;startSize=8;endSize=8;elbow=vertical;" edge="1" parent="KrmY5NOC-e03t4C5Ymkm-3" source="KrmY5NOC-e03t4C5Ymkm-31">
          <mxGeometry relative="1" as="geometry">
            <mxPoint x="159" y="571" as="targetPoint" />
          </mxGeometry>
        </mxCell>
        <mxCell id="KrmY5NOC-e03t4C5Ymkm-31" value="RF0" style="rounded=0;whiteSpace=wrap;html=1;" vertex="1" parent="KrmY5NOC-e03t4C5Ymkm-3">
          <mxGeometry x="150" y="218" width="36" height="19" as="geometry" />
        </mxCell>
        <mxCell id="KrmY5NOC-e03t4C5Ymkm-32" style="edgeStyle=none;curved=1;rounded=0;orthogonalLoop=1;jettySize=auto;html=1;fontSize=12;startSize=8;endSize=8;" edge="1" parent="KrmY5NOC-e03t4C5Ymkm-3" source="KrmY5NOC-e03t4C5Ymkm-33" target="KrmY5NOC-e03t4C5Ymkm-25">
          <mxGeometry relative="1" as="geometry" />
        </mxCell>
        <mxCell id="KrmY5NOC-e03t4C5Ymkm-33" value="Op-Amp&lt;div&gt;MCP6004&lt;/div&gt;" style="rounded=0;whiteSpace=wrap;html=1;" vertex="1" parent="KrmY5NOC-e03t4C5Ymkm-3">
          <mxGeometry x="429.5" y="74.5" width="99" height="51" as="geometry" />
        </mxCell>
        <mxCell id="KrmY5NOC-e03t4C5Ymkm-34" value="motor&amp;nbsp;&lt;div&gt;711&lt;/div&gt;" style="rounded=0;whiteSpace=wrap;html=1;" vertex="1" parent="KrmY5NOC-e03t4C5Ymkm-3">
          <mxGeometry x="588.5" y="587" width="99" height="47" as="geometry" />
        </mxCell>
        <mxCell id="KrmY5NOC-e03t4C5Ymkm-35" value="RD7" style="rounded=0;whiteSpace=wrap;html=1;" vertex="1" parent="KrmY5NOC-e03t4C5Ymkm-3">
          <mxGeometry x="255" y="219" width="39.5" height="16" as="geometry" />
        </mxCell>
        <mxCell id="KrmY5NOC-e03t4C5Ymkm-36" value="RD6" style="rounded=0;whiteSpace=wrap;html=1;" vertex="1" parent="KrmY5NOC-e03t4C5Ymkm-3">
          <mxGeometry x="230.5" y="219" width="29" height="16" as="geometry" />
        </mxCell>
        <mxCell id="KrmY5NOC-e03t4C5Ymkm-37" value="&lt;span style=&quot;font-size: 16px;&quot;&gt;limit switch 1&lt;/span&gt;&lt;br&gt;&lt;span style=&quot;font-size: 16px;&quot;&gt;463093691402&lt;/span&gt;" style="rounded=0;whiteSpace=wrap;html=1;" vertex="1" parent="KrmY5NOC-e03t4C5Ymkm-3">
          <mxGeometry x="196.5" y="333" width="116" height="51" as="geometry" />
        </mxCell>
        <mxCell id="KrmY5NOC-e03t4C5Ymkm-38" value="&lt;span style=&quot;font-size: 16px;&quot;&gt;limit switch 2&lt;/span&gt;&lt;div&gt;463093691402&lt;/div&gt;" style="rounded=0;whiteSpace=wrap;html=1;" vertex="1" parent="KrmY5NOC-e03t4C5Ymkm-3">
          <mxGeometry x="288" y="397" width="117" height="46" as="geometry" />
        </mxCell>
        <mxCell id="KrmY5NOC-e03t4C5Ymkm-39" value="" style="html=1;verticalAlign=bottom;endArrow=block;curved=0;rounded=0;fontSize=12;startSize=8;endSize=8;exitX=0.5;exitY=0;exitDx=0;exitDy=0;entryX=0.25;entryY=1;entryDx=0;entryDy=0;" edge="1" parent="KrmY5NOC-e03t4C5Ymkm-3" source="KrmY5NOC-e03t4C5Ymkm-37" target="KrmY5NOC-e03t4C5Ymkm-36">
          <mxGeometry x="0.2209" y="59" width="80" relative="1" as="geometry">
            <mxPoint x="403" y="373" as="sourcePoint" />
            <mxPoint x="483" y="373" as="targetPoint" />
            <Array as="points">
              <mxPoint x="255" y="272" />
              <mxPoint x="238" y="272" />
            </Array>
            <mxPoint as="offset" />
          </mxGeometry>
        </mxCell>
        <mxCell id="KrmY5NOC-e03t4C5Ymkm-40" value="" style="html=1;verticalAlign=bottom;endArrow=block;curved=0;rounded=0;fontSize=12;startSize=8;endSize=8;entryX=0.5;entryY=1;entryDx=0;entryDy=0;exitX=0.5;exitY=0;exitDx=0;exitDy=0;" edge="1" parent="KrmY5NOC-e03t4C5Ymkm-3" source="KrmY5NOC-e03t4C5Ymkm-38" target="KrmY5NOC-e03t4C5Ymkm-35">
          <mxGeometry x="0.2209" y="59" width="80" relative="1" as="geometry">
            <mxPoint x="314" y="287" as="sourcePoint" />
            <mxPoint x="235" y="230" as="targetPoint" />
            <Array as="points">
              <mxPoint x="347" y="260" />
              <mxPoint x="277" y="260" />
            </Array>
            <mxPoint as="offset" />
          </mxGeometry>
        </mxCell>
        <mxCell id="KrmY5NOC-e03t4C5Ymkm-41" value="RD5" style="rounded=0;whiteSpace=wrap;html=1;" vertex="1" parent="KrmY5NOC-e03t4C5Ymkm-3">
          <mxGeometry x="294.5" y="219" width="35" height="16" as="geometry" />
        </mxCell>
        <mxCell id="KrmY5NOC-e03t4C5Ymkm-42" value="RB5" style="rounded=0;whiteSpace=wrap;html=1;" vertex="1" parent="KrmY5NOC-e03t4C5Ymkm-3">
          <mxGeometry x="329.5" y="219" width="27" height="16" as="geometry" />
        </mxCell>
        <mxCell id="KrmY5NOC-e03t4C5Ymkm-43" value="H Bridge&amp;nbsp;&lt;br&gt;FAN8100N" style="rounded=0;whiteSpace=wrap;html=1;" vertex="1" parent="KrmY5NOC-e03t4C5Ymkm-3">
          <mxGeometry x="477" y="489" width="99" height="60" as="geometry" />
        </mxCell>
        <mxCell id="KrmY5NOC-e03t4C5Ymkm-44" value="" style="html=1;verticalAlign=bottom;endArrow=block;curved=0;rounded=0;fontSize=12;startSize=8;endSize=8;entryX=0;entryY=0.25;entryDx=0;entryDy=0;exitX=0.5;exitY=1;exitDx=0;exitDy=0;" edge="1" parent="KrmY5NOC-e03t4C5Ymkm-3" source="KrmY5NOC-e03t4C5Ymkm-41" target="KrmY5NOC-e03t4C5Ymkm-43">
          <mxGeometry x="0.2209" y="59" width="80" relative="1" as="geometry">
            <mxPoint x="587" y="280" as="sourcePoint" />
            <mxPoint x="472" y="223" as="targetPoint" />
            <Array as="points">
              <mxPoint x="312" y="254" />
              <mxPoint x="440" y="254" />
              <mxPoint x="440" y="504" />
            </Array>
            <mxPoint as="offset" />
          </mxGeometry>
        </mxCell>
        <mxCell id="KrmY5NOC-e03t4C5Ymkm-45" value="" style="html=1;verticalAlign=bottom;endArrow=block;curved=0;rounded=0;fontSize=12;startSize=8;endSize=8;entryX=0.25;entryY=0;entryDx=0;entryDy=0;exitX=0.5;exitY=1;exitDx=0;exitDy=0;" edge="1" parent="KrmY5NOC-e03t4C5Ymkm-3" source="KrmY5NOC-e03t4C5Ymkm-42" target="KrmY5NOC-e03t4C5Ymkm-43">
          <mxGeometry x="0.2209" y="59" width="80" relative="1" as="geometry">
            <mxPoint x="497" y="233" as="sourcePoint" />
            <mxPoint x="695" y="320" as="targetPoint" />
            <Array as="points">
              <mxPoint x="343" y="247" />
              <mxPoint x="502" y="247" />
            </Array>
            <mxPoint as="offset" />
          </mxGeometry>
        </mxCell>
        <mxCell id="KrmY5NOC-e03t4C5Ymkm-46" value="&lt;span style=&quot;color: rgb(0, 0, 0); font-family: Helvetica; font-size: 12px; font-style: normal; font-variant-ligatures: normal; font-variant-caps: normal; font-weight: 400; letter-spacing: normal; orphans: 2; text-align: center; text-indent: 0px; text-transform: none; widows: 2; word-spacing: 0px; -webkit-text-stroke-width: 0px; white-space: normal; background-color: rgb(236, 236, 236); text-decoration-thickness: initial; text-decoration-style: initial; text-decoration-color: initial; float: none; display: inline !important;&quot;&gt;ADC1&lt;/span&gt;" style="text;whiteSpace=wrap;html=1;" vertex="1" parent="KrmY5NOC-e03t4C5Ymkm-3">
          <mxGeometry x="307" y="86" width="60" height="36" as="geometry" />
        </mxCell>
        <mxCell id="KrmY5NOC-e03t4C5Ymkm-47" value="5V 1.5A Voltage Regulator&amp;nbsp;&lt;div&gt;L7805CV&lt;/div&gt;" style="rounded=0;whiteSpace=wrap;html=1;" vertex="1" parent="KrmY5NOC-e03t4C5Ymkm-3">
          <mxGeometry x="594" y="458" width="120" height="60" as="geometry" />
        </mxCell>
        <mxCell id="KrmY5NOC-e03t4C5Ymkm-48" value="9v 3A Unregulated Power Supply&amp;nbsp;&lt;div&gt;&lt;span style=&quot;white-space: pre; white-space: normal;&quot;&gt;&#x9;&lt;/span&gt;&lt;/div&gt;&lt;div&gt;&lt;span style=&quot;background-color: transparent;&quot;&gt;PJ-102AH&lt;/span&gt;&amp;nbsp;&lt;/div&gt;" style="rounded=0;whiteSpace=wrap;html=1;" vertex="1" parent="KrmY5NOC-e03t4C5Ymkm-3">
          <mxGeometry x="594" y="652" width="120" height="60" as="geometry" />
        </mxCell>
        <mxCell id="KrmY5NOC-e03t4C5Ymkm-49" value="" style="html=1;verticalAlign=bottom;endArrow=block;curved=0;rounded=0;fontSize=12;startSize=8;endSize=8;entryX=0.5;entryY=0;entryDx=0;entryDy=0;exitX=1.01;exitY=0.662;exitDx=0;exitDy=0;exitPerimeter=0;" edge="1" parent="KrmY5NOC-e03t4C5Ymkm-3" source="KrmY5NOC-e03t4C5Ymkm-43" target="KrmY5NOC-e03t4C5Ymkm-34">
          <mxGeometry x="0.2209" y="59" width="80" relative="1" as="geometry">
            <mxPoint x="771" y="562" as="sourcePoint" />
            <mxPoint x="956" y="827" as="targetPoint" />
            <Array as="points">
              <mxPoint x="638" y="529" />
            </Array>
            <mxPoint as="offset" />
          </mxGeometry>
        </mxCell>
        <mxCell id="KrmY5NOC-e03t4C5Ymkm-50" value="Digital/parallel&lt;div&gt;9v, 2pins&lt;/div&gt;" style="text;html=1;align=center;verticalAlign=middle;resizable=0;points=[];autosize=1;strokeColor=none;fillColor=none;fontSize=12;" vertex="1" parent="KrmY5NOC-e03t4C5Ymkm-3">
          <mxGeometry x="631" y="536" width="93" height="41" as="geometry" />
        </mxCell>
        <mxCell id="KrmY5NOC-e03t4C5Ymkm-51" value="Digital/parallel&lt;div&gt;5v, 1 pin&lt;/div&gt;" style="text;html=1;align=center;verticalAlign=middle;resizable=0;points=[];autosize=1;strokeColor=none;fillColor=none;fontSize=12;" vertex="1" parent="KrmY5NOC-e03t4C5Ymkm-3">
          <mxGeometry x="345" y="473" width="93" height="41" as="geometry" />
        </mxCell>
        <mxCell id="KrmY5NOC-e03t4C5Ymkm-52" value="Digital/parallel&lt;div&gt;5v, 1 pin&lt;/div&gt;" style="text;html=1;align=center;verticalAlign=middle;resizable=0;points=[];autosize=1;strokeColor=none;fillColor=none;fontSize=12;" vertex="1" parent="KrmY5NOC-e03t4C5Ymkm-3">
          <mxGeometry x="504" y="303" width="93" height="41" as="geometry" />
        </mxCell>
        <mxCell id="KrmY5NOC-e03t4C5Ymkm-53" value="Digital/parallel&lt;div&gt;5v, 1 pin&lt;/div&gt;" style="text;html=1;align=center;verticalAlign=middle;resizable=0;points=[];autosize=1;strokeColor=none;fillColor=none;fontSize=12;" vertex="1" parent="KrmY5NOC-e03t4C5Ymkm-3">
          <mxGeometry x="345" y="267" width="93" height="41" as="geometry" />
        </mxCell>
        <mxCell id="KrmY5NOC-e03t4C5Ymkm-54" value="Digital/parallel&lt;div&gt;5v, 1 pin&lt;/div&gt;" style="text;html=1;align=center;verticalAlign=middle;resizable=0;points=[];autosize=1;strokeColor=none;fillColor=none;fontSize=10;" vertex="1" parent="KrmY5NOC-e03t4C5Ymkm-3">
          <mxGeometry x="65" y="406" width="93" height="41" as="geometry" />
        </mxCell>
        <mxCell id="KrmY5NOC-e03t4C5Ymkm-55" value="&lt;div&gt;Analog (0-5v, 1 pin)&lt;/div&gt;" style="text;html=1;align=center;verticalAlign=middle;resizable=0;points=[];autosize=1;strokeColor=none;fillColor=none;fontSize=12;" vertex="1" parent="KrmY5NOC-e03t4C5Ymkm-3">
          <mxGeometry x="173" y="473" width="122" height="26" as="geometry" />
        </mxCell>
        <mxCell id="KrmY5NOC-e03t4C5Ymkm-56" value="RB2" style="rounded=0;whiteSpace=wrap;html=1;" vertex="1" parent="KrmY5NOC-e03t4C5Ymkm-3">
          <mxGeometry x="111" y="218" width="36" height="19" as="geometry" />
        </mxCell>
        <mxCell id="KrmY5NOC-e03t4C5Ymkm-57" style="edgeStyle=elbowEdgeStyle;rounded=0;orthogonalLoop=1;jettySize=auto;html=1;entryX=0.5;entryY=0;entryDx=0;entryDy=0;fontSize=12;startSize=8;endSize=8;elbow=vertical;exitX=0.5;exitY=1;exitDx=0;exitDy=0;" edge="1" parent="KrmY5NOC-e03t4C5Ymkm-3" source="KrmY5NOC-e03t4C5Ymkm-29" target="KrmY5NOC-e03t4C5Ymkm-20">
          <mxGeometry relative="1" as="geometry">
            <mxPoint x="93" y="237" as="sourcePoint" />
            <mxPoint x="46" y="572" as="targetPoint" />
            <Array as="points">
              <mxPoint x="90" y="277" />
              <mxPoint x="71" y="379" />
            </Array>
          </mxGeometry>
        </mxCell>
        <mxCell id="KrmY5NOC-e03t4C5Ymkm-58" value="Digital/parallel&lt;div&gt;5v, 1 pin&lt;/div&gt;" style="text;html=1;align=center;verticalAlign=middle;resizable=0;points=[];autosize=1;strokeColor=none;fillColor=none;fontSize=10;" vertex="1" parent="KrmY5NOC-e03t4C5Ymkm-3">
          <mxGeometry x="46" y="298" width="93" height="41" as="geometry" />
        </mxCell>
        <mxCell id="KrmY5NOC-e03t4C5Ymkm-59" value="Digital/parallel&lt;div&gt;5v, 1 pin&lt;/div&gt;" style="text;html=1;align=center;verticalAlign=middle;resizable=0;points=[];autosize=1;strokeColor=none;fillColor=none;fontSize=10;" vertex="1" parent="KrmY5NOC-e03t4C5Ymkm-3">
          <mxGeometry x="242" y="287" width="93" height="41" as="geometry" />
        </mxCell>
        <mxCell id="KrmY5NOC-e03t4C5Ymkm-60" value="Analog&amp;nbsp;&lt;div&gt;(0-5v, 1 pin)&lt;/div&gt;" style="text;html=1;align=center;verticalAlign=middle;resizable=0;points=[];autosize=1;strokeColor=none;fillColor=none;fontSize=12;" vertex="1" parent="KrmY5NOC-e03t4C5Ymkm-3">
          <mxGeometry x="86" y="473" width="81" height="41" as="geometry" />
        </mxCell>
        <mxCell id="F82p3VcFAzs-PNV2NLsG-4" value="" style="startArrow=classic;endArrow=classic;html=1;rounded=0;fontSize=14;edgeStyle=orthogonalEdgeStyle;entryX=0.5;entryY=1;entryDx=0;entryDy=0;elbow=vertical;strokeWidth=7;exitX=0.733;exitY=0.934;exitDx=0;exitDy=0;exitPerimeter=0;" edge="1" parent="1" target="KrmY5NOC-e03t4C5Ymkm-23" source="dsphJXYuK7cj5X2L_BGC-43">
          <mxGeometry relative="1" as="geometry">
            <mxPoint x="-1195" y="-17" as="sourcePoint" />
            <mxPoint x="-2151" y="-31" as="targetPoint" />
            <Array as="points">
              <mxPoint x="-1323" y="-17" />
              <mxPoint x="-1323" y="-17" />
              <mxPoint x="-1323" y="141" />
              <mxPoint x="-2477" y="141" />
            </Array>
          </mxGeometry>
        </mxCell>
        <mxCell id="4au_Pdg6uuZEv-u-k-Qo-113" value="Jacob Dirks - Moisture Sensor" style="text;html=1;whiteSpace=wrap;strokeColor=none;fillColor=none;align=center;verticalAlign=middle;rounded=0;" vertex="1" parent="1">
          <mxGeometry x="-2608" y="-736" width="762" height="25" as="geometry" />
        </mxCell>
        <mxCell id="lKv-hhWTcZWHCwmAepnb-1" value="" style="whiteSpace=wrap;html=1;aspect=fixed;" vertex="1" parent="1">
          <mxGeometry x="-869" y="-748" width="806" height="806" as="geometry" />
        </mxCell>
        <mxCell id="lKv-hhWTcZWHCwmAepnb-2" value="" style="group" connectable="0" vertex="1" parent="1">
          <mxGeometry x="-829" y="-688" width="750" height="726" as="geometry" />
        </mxCell>
        <mxCell id="lKv-hhWTcZWHCwmAepnb-3" value="" style="rounded=0;whiteSpace=wrap;html=1;fillColor=none;verticalAlign=top;" vertex="1" parent="lKv-hhWTcZWHCwmAepnb-2">
          <mxGeometry y="50" width="750" height="640" as="geometry" />
        </mxCell>
        <mxCell id="lKv-hhWTcZWHCwmAepnb-4" value="" style="rounded=0;whiteSpace=wrap;html=1;fillColor=none;dashed=1;strokeColor=none;" vertex="1" parent="lKv-hhWTcZWHCwmAepnb-2">
          <mxGeometry x="10" y="60" width="730" height="615" as="geometry" />
        </mxCell>
        <mxCell id="lKv-hhWTcZWHCwmAepnb-6" value="&lt;div style=&quot;font-size: 16px&quot;&gt;&lt;b style=&quot;font-size: 16px&quot;&gt;Block Diagram -- Team 102:&amp;nbsp;&lt;/b&gt;&lt;span style=&quot;background-color: transparent; color: light-dark(rgb(0, 0, 0), rgb(255, 255, 255));&quot;&gt;&lt;b&gt;Internal Reservoir System&lt;/b&gt;&lt;/span&gt;&lt;/div&gt;&lt;div style=&quot;font-size: 16px&quot;&gt;&lt;span style=&quot;background-color: transparent; color: light-dark(rgb(0, 0, 0), rgb(255, 255, 255));&quot;&gt;&lt;b&gt;Team Members: Terry Williams, Jacob Dirks, Austin Gonzalez, David&amp;nbsp;&lt;/b&gt;&lt;/span&gt;&lt;/div&gt;&lt;div style=&quot;font-size: 16px&quot;&gt;&lt;br&gt;&lt;/div&gt;" style="text;html=1;strokeColor=none;fillColor=none;align=center;verticalAlign=middle;whiteSpace=wrap;rounded=0;fontSize=16;" vertex="1" parent="lKv-hhWTcZWHCwmAepnb-2">
          <mxGeometry x="40" width="660" height="60" as="geometry" />
        </mxCell>
        <mxCell id="lKv-hhWTcZWHCwmAepnb-7" style="edgeStyle=orthogonalEdgeStyle;rounded=0;orthogonalLoop=1;jettySize=auto;html=1;entryX=0.5;entryY=0;entryDx=0;entryDy=0;exitX=0.5;exitY=1;exitDx=0;exitDy=0;" edge="1" parent="lKv-hhWTcZWHCwmAepnb-2" target="lKv-hhWTcZWHCwmAepnb-19">
          <mxGeometry relative="1" as="geometry">
            <mxPoint x="470" y="670" as="targetPoint" />
            <mxPoint x="532.6723076923081" y="337" as="sourcePoint" />
            <Array as="points">
              <mxPoint x="533" y="416" />
              <mxPoint x="665" y="416" />
            </Array>
          </mxGeometry>
        </mxCell>
        <mxCell id="lKv-hhWTcZWHCwmAepnb-8" style="edgeStyle=orthogonalEdgeStyle;rounded=0;orthogonalLoop=1;jettySize=auto;html=1;exitX=0.5;exitY=0;exitDx=0;exitDy=0;" edge="1" parent="lKv-hhWTcZWHCwmAepnb-2" source="lKv-hhWTcZWHCwmAepnb-14">
          <mxGeometry relative="1" as="geometry">
            <mxPoint x="290" y="670" as="sourcePoint" />
            <mxPoint x="482.44444444444434" y="337" as="targetPoint" />
          </mxGeometry>
        </mxCell>
        <mxCell id="lKv-hhWTcZWHCwmAepnb-10" value="" style="group" connectable="0" vertex="1" parent="lKv-hhWTcZWHCwmAepnb-2">
          <mxGeometry x="555" y="592" width="160" height="157" as="geometry" />
        </mxCell>
        <mxCell id="lKv-hhWTcZWHCwmAepnb-11" value="connector 1" style="rounded=0;whiteSpace=wrap;html=1;verticalAlign=bottom;" vertex="1" parent="lKv-hhWTcZWHCwmAepnb-10">
          <mxGeometry width="160" height="60" as="geometry" />
        </mxCell>
        <mxCell id="lKv-hhWTcZWHCwmAepnb-12" value="digital" style="rounded=0;whiteSpace=wrap;html=1;verticalAlign=bottom;" vertex="1" parent="lKv-hhWTcZWHCwmAepnb-10">
          <mxGeometry y="20" width="100" height="20" as="geometry" />
        </mxCell>
        <mxCell id="lKv-hhWTcZWHCwmAepnb-13" value="analog" style="rounded=0;whiteSpace=wrap;html=1;verticalAlign=bottom;" vertex="1" parent="lKv-hhWTcZWHCwmAepnb-10">
          <mxGeometry x="100" y="20" width="40" height="20" as="geometry" />
        </mxCell>
        <mxCell id="lKv-hhWTcZWHCwmAepnb-14" value="1" style="rounded=0;whiteSpace=wrap;html=1;" vertex="1" parent="lKv-hhWTcZWHCwmAepnb-10">
          <mxGeometry width="20" height="20" as="geometry" />
        </mxCell>
        <mxCell id="lKv-hhWTcZWHCwmAepnb-15" value="2" style="rounded=0;whiteSpace=wrap;html=1;" vertex="1" parent="lKv-hhWTcZWHCwmAepnb-10">
          <mxGeometry x="20" width="20" height="20" as="geometry" />
        </mxCell>
        <mxCell id="lKv-hhWTcZWHCwmAepnb-16" value="3" style="rounded=0;whiteSpace=wrap;html=1;" vertex="1" parent="lKv-hhWTcZWHCwmAepnb-10">
          <mxGeometry x="40" width="20" height="20" as="geometry" />
        </mxCell>
        <mxCell id="lKv-hhWTcZWHCwmAepnb-17" value="4" style="rounded=0;whiteSpace=wrap;html=1;" vertex="1" parent="lKv-hhWTcZWHCwmAepnb-10">
          <mxGeometry x="60" width="20" height="20" as="geometry" />
        </mxCell>
        <mxCell id="lKv-hhWTcZWHCwmAepnb-18" value="5" style="rounded=0;whiteSpace=wrap;html=1;" vertex="1" parent="lKv-hhWTcZWHCwmAepnb-10">
          <mxGeometry x="80" width="20" height="20" as="geometry" />
        </mxCell>
        <mxCell id="lKv-hhWTcZWHCwmAepnb-19" value="6" style="rounded=0;whiteSpace=wrap;html=1;" vertex="1" parent="lKv-hhWTcZWHCwmAepnb-10">
          <mxGeometry x="100" width="20" height="20" as="geometry" />
        </mxCell>
        <mxCell id="lKv-hhWTcZWHCwmAepnb-20" value="7" style="rounded=0;whiteSpace=wrap;html=1;" vertex="1" parent="lKv-hhWTcZWHCwmAepnb-10">
          <mxGeometry x="120" width="20" height="20" as="geometry" />
        </mxCell>
        <mxCell id="lKv-hhWTcZWHCwmAepnb-21" value="8" style="rounded=0;whiteSpace=wrap;html=1;" vertex="1" parent="lKv-hhWTcZWHCwmAepnb-10">
          <mxGeometry x="140" width="20" height="20" as="geometry" />
        </mxCell>
        <mxCell id="lKv-hhWTcZWHCwmAepnb-45" value="Float Switch&lt;div&gt;Part #&amp;nbsp;59630-1-T-02-F&lt;/div&gt;" style="rounded=0;whiteSpace=wrap;html=1;" vertex="1" parent="lKv-hhWTcZWHCwmAepnb-2">
          <mxGeometry x="45" y="354" width="181" height="50" as="geometry" />
        </mxCell>
        <mxCell id="LkBNivx_LFZGiS8lHFLT-1" value="5V 1.5A Voltage Regulator&amp;nbsp;&lt;div&gt;L7805CV&lt;/div&gt;" style="rounded=0;whiteSpace=wrap;html=1;" vertex="1" parent="lKv-hhWTcZWHCwmAepnb-2">
          <mxGeometry x="16" y="142" width="120" height="60" as="geometry" />
        </mxCell>
        <mxCell id="LkBNivx_LFZGiS8lHFLT-13" value="" style="edgeStyle=orthogonalEdgeStyle;rounded=0;orthogonalLoop=1;jettySize=auto;html=1;" edge="1" parent="lKv-hhWTcZWHCwmAepnb-2" source="LkBNivx_LFZGiS8lHFLT-3" target="LkBNivx_LFZGiS8lHFLT-1">
          <mxGeometry relative="1" as="geometry" />
        </mxCell>
        <mxCell id="LkBNivx_LFZGiS8lHFLT-3" value="9V 3A Unregulated Power Supply&lt;div&gt;Part#:&lt;span style=&quot;background-color: transparent; color: light-dark(rgb(0, 0, 0), rgb(255, 255, 255));&quot;&gt;PJ-102AH&lt;/span&gt;&lt;span style=&quot;background-color: transparent; color: light-dark(rgb(0, 0, 0), rgb(255, 255, 255));&quot;&gt;&amp;nbsp;&lt;/span&gt;&lt;/div&gt;" style="rounded=0;whiteSpace=wrap;html=1;" vertex="1" parent="lKv-hhWTcZWHCwmAepnb-2">
          <mxGeometry x="16" y="63" width="120" height="60" as="geometry" />
        </mxCell>
        <mxCell id="LkBNivx_LFZGiS8lHFLT-4" value="&lt;font&gt;5V DC Water Pump&lt;/font&gt;&lt;div&gt;&lt;font&gt;Part#: FIT0910&amp;nbsp;&lt;/font&gt;&lt;/div&gt;&lt;div&gt;&lt;br&gt;&lt;/div&gt;" style="rounded=0;whiteSpace=wrap;html=1;" vertex="1" parent="lKv-hhWTcZWHCwmAepnb-2">
          <mxGeometry x="297" y="563" width="162.5" height="77" as="geometry" />
        </mxCell>
        <mxCell id="LkBNivx_LFZGiS8lHFLT-8" value="" style="edgeStyle=orthogonalEdgeStyle;rounded=0;orthogonalLoop=1;jettySize=auto;html=1;entryX=0.974;entryY=0.359;entryDx=0;entryDy=0;exitX=0.465;exitY=0.971;exitDx=0;exitDy=0;exitPerimeter=0;entryPerimeter=0;" edge="1" parent="lKv-hhWTcZWHCwmAepnb-2" target="LkBNivx_LFZGiS8lHFLT-5">
          <mxGeometry relative="1" as="geometry">
            <mxPoint x="384.0069615384609" y="336.231" as="sourcePoint" />
            <Array as="points">
              <mxPoint x="384" y="463" />
            </Array>
          </mxGeometry>
        </mxCell>
        <mxCell id="LkBNivx_LFZGiS8lHFLT-17" value="Output 25 mv" style="edgeLabel;html=1;align=center;verticalAlign=middle;resizable=0;points=[];" connectable="0" vertex="1" parent="LkBNivx_LFZGiS8lHFLT-8">
          <mxGeometry x="0.0721" relative="1" as="geometry">
            <mxPoint y="1" as="offset" />
          </mxGeometry>
        </mxCell>
        <mxCell id="LkBNivx_LFZGiS8lHFLT-5" value="&lt;span style=&quot;background-color: transparent; color: light-dark(rgb(0, 0, 0), rgb(255, 255, 255));&quot;&gt;CIT Relay and Switch&lt;/span&gt;&lt;div&gt;&lt;span style=&quot;background-color: transparent; color: light-dark(rgb(0, 0, 0), rgb(255, 255, 255));&quot;&gt;Part#:&amp;nbsp;&lt;/span&gt;&lt;span style=&quot;background-color: transparent; white-space: pre; white-space: normal;&quot;&gt;&#x9;&lt;/span&gt;&lt;/div&gt;&lt;div&gt;2449-J1021CS324VDC.20-ND&lt;/div&gt;" style="rounded=0;whiteSpace=wrap;html=1;" vertex="1" parent="lKv-hhWTcZWHCwmAepnb-2">
          <mxGeometry x="120" y="436" width="193" height="76" as="geometry" />
        </mxCell>
        <mxCell id="LkBNivx_LFZGiS8lHFLT-7" value="" style="edgeStyle=orthogonalEdgeStyle;rounded=0;orthogonalLoop=1;jettySize=auto;html=1;entryX=0.5;entryY=0;entryDx=0;entryDy=0;" edge="1" parent="lKv-hhWTcZWHCwmAepnb-2" source="LkBNivx_LFZGiS8lHFLT-5" target="LkBNivx_LFZGiS8lHFLT-4">
          <mxGeometry relative="1" as="geometry">
            <mxPoint x="273.5" y="534" as="targetPoint" />
          </mxGeometry>
        </mxCell>
        <mxCell id="LkBNivx_LFZGiS8lHFLT-15" value="" style="edgeStyle=orthogonalEdgeStyle;rounded=0;orthogonalLoop=1;jettySize=auto;html=1;entryX=0;entryY=0.5;entryDx=0;entryDy=0;dashed=1;exitX=0.5;exitY=1;exitDx=0;exitDy=0;" edge="1" parent="lKv-hhWTcZWHCwmAepnb-2" source="LkBNivx_LFZGiS8lHFLT-1" target="LkBNivx_LFZGiS8lHFLT-5">
          <mxGeometry relative="1" as="geometry">
            <mxPoint x="76" y="282" as="targetPoint" />
            <Array as="points">
              <mxPoint x="24" y="202" />
              <mxPoint x="24" y="474" />
            </Array>
          </mxGeometry>
        </mxCell>
        <mxCell id="LkBNivx_LFZGiS8lHFLT-16" value="5 volts in" style="edgeLabel;html=1;align=center;verticalAlign=middle;resizable=0;points=[];" connectable="0" vertex="1" parent="LkBNivx_LFZGiS8lHFLT-15">
          <mxGeometry x="0.246" y="2" relative="1" as="geometry">
            <mxPoint as="offset" />
          </mxGeometry>
        </mxCell>
        <mxCell id="LkBNivx_LFZGiS8lHFLT-25" value="" style="edgeStyle=orthogonalEdgeStyle;rounded=0;orthogonalLoop=1;jettySize=auto;html=1;entryX=0.5;entryY=0;entryDx=0;entryDy=0;dashed=1;" edge="1" parent="lKv-hhWTcZWHCwmAepnb-2" source="LkBNivx_LFZGiS8lHFLT-1" target="lKv-hhWTcZWHCwmAepnb-45">
          <mxGeometry relative="1" as="geometry">
            <mxPoint x="76" y="282" as="targetPoint" />
          </mxGeometry>
        </mxCell>
        <mxCell id="LkBNivx_LFZGiS8lHFLT-26" value="" style="edgeStyle=orthogonalEdgeStyle;rounded=0;orthogonalLoop=1;jettySize=auto;html=1;entryX=1;entryY=0.5;entryDx=0;entryDy=0;" edge="1" parent="lKv-hhWTcZWHCwmAepnb-2" target="lKv-hhWTcZWHCwmAepnb-45">
          <mxGeometry relative="1" as="geometry">
            <mxPoint x="332" y="337" as="sourcePoint" />
            <Array as="points">
              <mxPoint x="332" y="379" />
            </Array>
          </mxGeometry>
        </mxCell>
        <mxCell id="LkBNivx_LFZGiS8lHFLT-39" value="" style="rounded=0;whiteSpace=wrap;html=1;" vertex="1" parent="lKv-hhWTcZWHCwmAepnb-2">
          <mxGeometry x="226" y="137" width="345" height="195" as="geometry" />
        </mxCell>
        <mxCell id="LkBNivx_LFZGiS8lHFLT-31" value="" style="group" connectable="0" vertex="1" parent="lKv-hhWTcZWHCwmAepnb-2">
          <mxGeometry x="235.5" y="77" width="338.50384615384615" height="394" as="geometry" />
        </mxCell>
        <mxCell id="LkBNivx_LFZGiS8lHFLT-32" value="" style="group" connectable="0" vertex="1" parent="LkBNivx_LFZGiS8lHFLT-31">
          <mxGeometry x="12.538461538461538" y="190" width="312.2076923076923" height="204" as="geometry" />
        </mxCell>
        <mxCell id="LkBNivx_LFZGiS8lHFLT-33" value="Digital I/O" style="rounded=0;whiteSpace=wrap;html=1;fillColor=none;verticalAlign=top;" vertex="1" parent="LkBNivx_LFZGiS8lHFLT-32">
          <mxGeometry x="-12.538461538461538" width="324.74615384615385" height="61" as="geometry" />
        </mxCell>
        <mxCell id="LkBNivx_LFZGiS8lHFLT-34" value="RD2" style="rounded=0;whiteSpace=wrap;html=1;" vertex="1" parent="LkBNivx_LFZGiS8lHFLT-32">
          <mxGeometry x="61.441538461538464" y="30" width="50.15384615384615" height="30" as="geometry" />
        </mxCell>
        <mxCell id="LkBNivx_LFZGiS8lHFLT-35" value="RD1" style="rounded=0;whiteSpace=wrap;html=1;" vertex="1" parent="LkBNivx_LFZGiS8lHFLT-32">
          <mxGeometry x="111.59538461538462" y="30" width="50.15384615384615" height="30" as="geometry" />
        </mxCell>
        <mxCell id="LkBNivx_LFZGiS8lHFLT-36" value="RB2" style="rounded=0;whiteSpace=wrap;html=1;" vertex="1" parent="LkBNivx_LFZGiS8lHFLT-32">
          <mxGeometry x="161.7492307692308" y="30" width="50.15384615384615" height="30" as="geometry" />
        </mxCell>
        <mxCell id="LkBNivx_LFZGiS8lHFLT-37" value="RC7" style="rounded=0;whiteSpace=wrap;html=1;labelBackgroundColor=none;" vertex="1" parent="LkBNivx_LFZGiS8lHFLT-32">
          <mxGeometry x="211.90307692307692" y="30" width="50.15384615384615" height="30" as="geometry" />
        </mxCell>
        <mxCell id="LkBNivx_LFZGiS8lHFLT-38" value="RC3" style="rounded=0;whiteSpace=wrap;html=1;labelBackgroundColor=none;" vertex="1" parent="LkBNivx_LFZGiS8lHFLT-32">
          <mxGeometry x="262.05692307692306" y="30" width="50.15384615384615" height="30" as="geometry" />
        </mxCell>
        <mxCell id="LkBNivx_LFZGiS8lHFLT-40" value="PIC18F57Q43 Curiosity Nano" style="text;html=1;align=center;verticalAlign=middle;whiteSpace=wrap;rounded=0;" vertex="1" parent="LkBNivx_LFZGiS8lHFLT-31">
          <mxGeometry x="79" y="68" width="168" height="23" as="geometry" />
        </mxCell>
        <mxCell id="LkBNivx_LFZGiS8lHFLT-41" value="Terry Float Switch and Intake - Actuation" style="text;html=1;align=center;verticalAlign=middle;whiteSpace=wrap;rounded=0;" vertex="1" parent="LkBNivx_LFZGiS8lHFLT-31">
          <mxGeometry x="-7.5" y="32" width="346" height="30" as="geometry" />
        </mxCell>
        <mxCell id="LkBNivx_LFZGiS8lHFLT-84" value="RD2" style="rounded=0;whiteSpace=wrap;html=1;" vertex="1" parent="LkBNivx_LFZGiS8lHFLT-31">
          <mxGeometry x="284.35" y="99" width="50.15384615384615" height="30" as="geometry" />
        </mxCell>
        <mxCell id="LkBNivx_LFZGiS8lHFLT-85" value="PWM" style="text;html=1;align=center;verticalAlign=middle;whiteSpace=wrap;rounded=0;" vertex="1" parent="LkBNivx_LFZGiS8lHFLT-31">
          <mxGeometry x="274.5" y="61" width="60" height="30" as="geometry" />
        </mxCell>
        <mxCell id="LkBNivx_LFZGiS8lHFLT-86" value="LED INDICATOR" style="rounded=0;whiteSpace=wrap;html=1;" vertex="1" parent="lKv-hhWTcZWHCwmAepnb-2">
          <mxGeometry x="624" y="180.5" width="97.25" height="21" as="geometry" />
        </mxCell>
        <mxCell id="LkBNivx_LFZGiS8lHFLT-89" value="" style="edgeStyle=orthogonalEdgeStyle;rounded=0;orthogonalLoop=1;jettySize=auto;html=1;" edge="1" parent="lKv-hhWTcZWHCwmAepnb-2" source="LkBNivx_LFZGiS8lHFLT-84" target="LkBNivx_LFZGiS8lHFLT-86">
          <mxGeometry relative="1" as="geometry" />
        </mxCell>
        <mxCell id="lKv-hhWTcZWHCwmAepnb-60" value="" style="startArrow=classic;endArrow=classic;html=1;rounded=0;fontSize=14;edgeStyle=orthogonalEdgeStyle;elbow=vertical;strokeWidth=7;entryX=0.215;entryY=0.956;entryDx=0;entryDy=0;exitX=0.879;exitY=0.985;exitDx=0;exitDy=0;exitPerimeter=0;entryPerimeter=0;" edge="1" parent="1" source="lKv-hhWTcZWHCwmAepnb-4" target="dsphJXYuK7cj5X2L_BGC-21">
          <mxGeometry relative="1" as="geometry">
            <mxPoint x="26" y="91" as="sourcePoint" />
            <mxPoint x="-1023" y="-11" as="targetPoint" />
            <Array as="points">
              <mxPoint x="-177" y="114" />
              <mxPoint x="-177" y="141" />
              <mxPoint x="-1205" y="141" />
            </Array>
          </mxGeometry>
        </mxCell>
        <mxCell id="dsphJXYuK7cj5X2L_BGC-1" value="" style="rounded=0;whiteSpace=wrap;html=1;" vertex="1" parent="1">
          <mxGeometry x="-1743" y="-715" width="827" height="670.5" as="geometry" />
        </mxCell>
        <mxCell id="dsphJXYuK7cj5X2L_BGC-2" value="" style="rounded=0;whiteSpace=wrap;html=1;" vertex="1" parent="1">
          <mxGeometry x="-1400" y="-564.5" width="315" height="195" as="geometry" />
        </mxCell>
        <mxCell id="dsphJXYuK7cj5X2L_BGC-3" value="PIC18F57Q43 Curiosity Nano" style="text;html=1;align=center;verticalAlign=middle;whiteSpace=wrap;rounded=0;" vertex="1" parent="1">
          <mxGeometry x="-1326.5" y="-555.5" width="168" height="23" as="geometry" />
        </mxCell>
        <mxCell id="dsphJXYuK7cj5X2L_BGC-4" value="&lt;font&gt;Austin&amp;nbsp;&lt;/font&gt;&lt;span id=&quot;docs-internal-guid-4edce31f-7fff-05bb-a418-28ea8429a305&quot;&gt;&lt;span style=&quot;font-size: 11pt; font-family: Arial, sans-serif; background-color: transparent; font-variant-numeric: normal; font-variant-east-asian: normal; font-variant-alternates: normal; font-variant-position: normal; font-variant-emoji: normal; vertical-align: baseline; white-space-collapse: preserve;&quot;&gt;&lt;font&gt;Water Distribution Pump - &lt;/font&gt;&lt;/span&gt;&lt;span style=&quot;font-size: 11pt; font-family: Arial, sans-serif; color: rgb(0, 0, 0); background-color: transparent; font-variant-numeric: normal; font-variant-east-asian: normal; font-variant-alternates: normal; font-variant-position: normal; font-variant-emoji: normal; vertical-align: baseline; white-space-collapse: preserve;&quot;&gt;Actuation&lt;/span&gt;&lt;/span&gt;" style="text;html=1;align=center;verticalAlign=middle;whiteSpace=wrap;rounded=0;" vertex="1" parent="1">
          <mxGeometry x="-1413" y="-587.5" width="346" height="30" as="geometry" />
        </mxCell>
        <mxCell id="dsphJXYuK7cj5X2L_BGC-5" value="&lt;font&gt;3V-12V&amp;nbsp; PUMP&lt;/font&gt;&lt;div&gt;&lt;font&gt;Part:&amp;nbsp;&lt;span style=&quot;background-color: rgb(255, 255, 255); font-family: Roboto, -apple-system, BlinkMacSystemFont, Helvetica, Arial, sans-serif; letter-spacing: -0.01em; text-align: start;&quot;&gt;&lt;font style=&quot;color: light-dark(rgba(0, 0, 0, 0.87), rgb(255, 255, 255));&quot;&gt;Olimex Micro Water Pump&lt;/font&gt;&lt;/span&gt;&lt;/font&gt;&lt;/div&gt;&lt;div&gt;&lt;br&gt;&lt;/div&gt;" style="rounded=0;whiteSpace=wrap;html=1;" vertex="1" parent="1">
          <mxGeometry x="-1712.75" y="-664.5" width="162.5" height="77" as="geometry" />
        </mxCell>
        <mxCell id="dsphJXYuK7cj5X2L_BGC-6" style="edgeStyle=orthogonalEdgeStyle;rounded=0;orthogonalLoop=1;jettySize=auto;html=1;entryX=1;entryY=0.5;entryDx=0;entryDy=0;exitX=0;exitY=0.5;exitDx=0;exitDy=0;" edge="1" parent="1" source="dsphJXYuK7cj5X2L_BGC-62" target="dsphJXYuK7cj5X2L_BGC-7">
          <mxGeometry relative="1" as="geometry">
            <mxPoint x="-1413.5" y="-508.5" as="sourcePoint" />
            <mxPoint x="-1563.75" y="-499" as="targetPoint" />
            <Array as="points" />
          </mxGeometry>
        </mxCell>
        <mxCell id="dsphJXYuK7cj5X2L_BGC-7" value="MOSFET&lt;div&gt;&amp;nbsp;Part: AOFT2618&lt;/div&gt;" style="rounded=0;whiteSpace=wrap;html=1;" vertex="1" parent="1">
          <mxGeometry x="-1693" y="-555" width="110" height="60" as="geometry" />
        </mxCell>
        <mxCell id="dsphJXYuK7cj5X2L_BGC-8" value="PWM" style="text;html=1;align=center;verticalAlign=middle;whiteSpace=wrap;rounded=0;" vertex="1" parent="1">
          <mxGeometry x="-1413" y="-564.5" width="60" height="30" as="geometry" />
        </mxCell>
        <mxCell id="dsphJXYuK7cj5X2L_BGC-9" value="" style="group" connectable="0" vertex="1" parent="1">
          <mxGeometry x="-1250" y="-94.5" width="152" height="75" as="geometry" />
        </mxCell>
        <mxCell id="dsphJXYuK7cj5X2L_BGC-10" value="" style="rounded=0;whiteSpace=wrap;html=1;" vertex="1" parent="dsphJXYuK7cj5X2L_BGC-9">
          <mxGeometry width="152" height="72" as="geometry" />
        </mxCell>
        <mxCell id="dsphJXYuK7cj5X2L_BGC-11" value="2" style="rounded=0;whiteSpace=wrap;html=1;" vertex="1" parent="dsphJXYuK7cj5X2L_BGC-9">
          <mxGeometry x="19" width="19" height="19" as="geometry" />
        </mxCell>
        <mxCell id="dsphJXYuK7cj5X2L_BGC-12" value="3" style="rounded=0;whiteSpace=wrap;html=1;" vertex="1" parent="dsphJXYuK7cj5X2L_BGC-9">
          <mxGeometry x="38" width="19" height="19" as="geometry" />
        </mxCell>
        <mxCell id="dsphJXYuK7cj5X2L_BGC-13" value="4" style="rounded=0;whiteSpace=wrap;html=1;" vertex="1" parent="dsphJXYuK7cj5X2L_BGC-9">
          <mxGeometry x="57" width="19" height="19" as="geometry" />
        </mxCell>
        <mxCell id="dsphJXYuK7cj5X2L_BGC-14" value="5" style="rounded=0;whiteSpace=wrap;html=1;" vertex="1" parent="dsphJXYuK7cj5X2L_BGC-9">
          <mxGeometry x="76" width="19" height="19" as="geometry" />
        </mxCell>
        <mxCell id="dsphJXYuK7cj5X2L_BGC-15" value="6" style="rounded=0;whiteSpace=wrap;html=1;" vertex="1" parent="dsphJXYuK7cj5X2L_BGC-9">
          <mxGeometry x="95" width="19" height="19" as="geometry" />
        </mxCell>
        <mxCell id="dsphJXYuK7cj5X2L_BGC-16" value="7" style="rounded=0;whiteSpace=wrap;html=1;" vertex="1" parent="dsphJXYuK7cj5X2L_BGC-9">
          <mxGeometry x="114" width="19" height="19" as="geometry" />
        </mxCell>
        <mxCell id="dsphJXYuK7cj5X2L_BGC-17" value="8" style="rounded=0;whiteSpace=wrap;html=1;" vertex="1" parent="dsphJXYuK7cj5X2L_BGC-9">
          <mxGeometry x="133" width="19" height="19" as="geometry" />
        </mxCell>
        <mxCell id="dsphJXYuK7cj5X2L_BGC-18" value="1" style="rounded=0;whiteSpace=wrap;html=1;" vertex="1" parent="dsphJXYuK7cj5X2L_BGC-9">
          <mxGeometry width="19" height="19" as="geometry" />
        </mxCell>
        <mxCell id="dsphJXYuK7cj5X2L_BGC-19" value="Digital" style="rounded=0;whiteSpace=wrap;html=1;" vertex="1" parent="dsphJXYuK7cj5X2L_BGC-9">
          <mxGeometry y="19" width="95" height="26" as="geometry" />
        </mxCell>
        <mxCell id="dsphJXYuK7cj5X2L_BGC-20" value="&lt;font style=&quot;font-size: 8px;&quot;&gt;ANALOG&lt;/font&gt;" style="rounded=0;whiteSpace=wrap;html=1;" vertex="1" parent="dsphJXYuK7cj5X2L_BGC-9">
          <mxGeometry x="95" y="19" width="38" height="26" as="geometry" />
        </mxCell>
        <mxCell id="dsphJXYuK7cj5X2L_BGC-21" value="CONNECTOR 2" style="text;html=1;align=center;verticalAlign=middle;whiteSpace=wrap;rounded=0;" vertex="1" parent="dsphJXYuK7cj5X2L_BGC-9">
          <mxGeometry x="21.75" y="45" width="108.5" height="30" as="geometry" />
        </mxCell>
        <mxCell id="dsphJXYuK7cj5X2L_BGC-22" value="RA0" style="whiteSpace=wrap;html=1;aspect=fixed;" vertex="1" parent="1">
          <mxGeometry x="-1120" y="-499" width="35" height="35" as="geometry" />
        </mxCell>
        <mxCell id="dsphJXYuK7cj5X2L_BGC-23" value="" style="rounded=0;whiteSpace=wrap;html=1;" vertex="1" parent="1">
          <mxGeometry x="-1326" y="-413.5" width="172" height="44" as="geometry" />
        </mxCell>
        <mxCell id="dsphJXYuK7cj5X2L_BGC-24" value="Digital I/O" style="text;html=1;align=center;verticalAlign=middle;whiteSpace=wrap;rounded=0;" vertex="1" parent="1">
          <mxGeometry x="-1272.5" y="-409.5" width="60" height="14" as="geometry" />
        </mxCell>
        <mxCell id="dsphJXYuK7cj5X2L_BGC-25" value="RD5" style="rounded=0;whiteSpace=wrap;html=1;" vertex="1" parent="1">
          <mxGeometry x="-1311" y="-388.5" width="36" height="19" as="geometry" />
        </mxCell>
        <mxCell id="dsphJXYuK7cj5X2L_BGC-26" style="edgeStyle=orthogonalEdgeStyle;rounded=0;orthogonalLoop=1;jettySize=auto;html=1;entryX=0.5;entryY=0;entryDx=0;entryDy=0;" edge="1" parent="1" source="dsphJXYuK7cj5X2L_BGC-27" target="dsphJXYuK7cj5X2L_BGC-33">
          <mxGeometry relative="1" as="geometry">
            <Array as="points">
              <mxPoint x="-1255" y="-124.5" />
              <mxPoint x="-1395" y="-124.5" />
              <mxPoint x="-1395" y="-94.5" />
            </Array>
          </mxGeometry>
        </mxCell>
        <mxCell id="dsphJXYuK7cj5X2L_BGC-27" value="RF2" style="rounded=0;whiteSpace=wrap;html=1;" vertex="1" parent="1">
          <mxGeometry x="-1275" y="-388.5" width="36" height="19" as="geometry" />
        </mxCell>
        <mxCell id="dsphJXYuK7cj5X2L_BGC-28" style="edgeStyle=orthogonalEdgeStyle;rounded=0;orthogonalLoop=1;jettySize=auto;html=1;entryX=0.5;entryY=0;entryDx=0;entryDy=0;" edge="1" parent="1" source="dsphJXYuK7cj5X2L_BGC-29" target="dsphJXYuK7cj5X2L_BGC-18">
          <mxGeometry relative="1" as="geometry">
            <Array as="points">
              <mxPoint x="-1221" y="-124.5" />
              <mxPoint x="-1240" y="-124.5" />
              <mxPoint x="-1240" y="-94.5" />
            </Array>
            <mxPoint x="-1202" y="-94.5" as="targetPoint" />
          </mxGeometry>
        </mxCell>
        <mxCell id="dsphJXYuK7cj5X2L_BGC-29" value="RC4" style="rounded=0;whiteSpace=wrap;html=1;" vertex="1" parent="1">
          <mxGeometry x="-1239" y="-388.5" width="36" height="19" as="geometry" />
        </mxCell>
        <mxCell id="dsphJXYuK7cj5X2L_BGC-30" value="RC3" style="rounded=0;whiteSpace=wrap;html=1;" vertex="1" parent="1">
          <mxGeometry x="-1203" y="-388.5" width="36" height="19" as="geometry" />
        </mxCell>
        <mxCell id="dsphJXYuK7cj5X2L_BGC-31" value="" style="group" connectable="0" vertex="1" parent="1">
          <mxGeometry x="-1424" y="-94.5" width="152" height="75" as="geometry" />
        </mxCell>
        <mxCell id="dsphJXYuK7cj5X2L_BGC-32" value="" style="rounded=0;whiteSpace=wrap;html=1;" vertex="1" parent="dsphJXYuK7cj5X2L_BGC-31">
          <mxGeometry width="152" height="72" as="geometry" />
        </mxCell>
        <mxCell id="dsphJXYuK7cj5X2L_BGC-33" value="2" style="rounded=0;whiteSpace=wrap;html=1;" vertex="1" parent="dsphJXYuK7cj5X2L_BGC-31">
          <mxGeometry x="19" width="19" height="19" as="geometry" />
        </mxCell>
        <mxCell id="dsphJXYuK7cj5X2L_BGC-34" value="3" style="rounded=0;whiteSpace=wrap;html=1;" vertex="1" parent="dsphJXYuK7cj5X2L_BGC-31">
          <mxGeometry x="38" width="19" height="19" as="geometry" />
        </mxCell>
        <mxCell id="dsphJXYuK7cj5X2L_BGC-35" value="4" style="rounded=0;whiteSpace=wrap;html=1;" vertex="1" parent="dsphJXYuK7cj5X2L_BGC-31">
          <mxGeometry x="57" width="19" height="19" as="geometry" />
        </mxCell>
        <mxCell id="dsphJXYuK7cj5X2L_BGC-36" value="5" style="rounded=0;whiteSpace=wrap;html=1;" vertex="1" parent="dsphJXYuK7cj5X2L_BGC-31">
          <mxGeometry x="76" width="19" height="19" as="geometry" />
        </mxCell>
        <mxCell id="dsphJXYuK7cj5X2L_BGC-37" value="6" style="rounded=0;whiteSpace=wrap;html=1;" vertex="1" parent="dsphJXYuK7cj5X2L_BGC-31">
          <mxGeometry x="95" width="19" height="19" as="geometry" />
        </mxCell>
        <mxCell id="dsphJXYuK7cj5X2L_BGC-38" value="7" style="rounded=0;whiteSpace=wrap;html=1;" vertex="1" parent="dsphJXYuK7cj5X2L_BGC-31">
          <mxGeometry x="114" width="19" height="19" as="geometry" />
        </mxCell>
        <mxCell id="dsphJXYuK7cj5X2L_BGC-39" value="8" style="rounded=0;whiteSpace=wrap;html=1;" vertex="1" parent="dsphJXYuK7cj5X2L_BGC-31">
          <mxGeometry x="133" width="19" height="19" as="geometry" />
        </mxCell>
        <mxCell id="dsphJXYuK7cj5X2L_BGC-40" value="1" style="rounded=0;whiteSpace=wrap;html=1;" vertex="1" parent="dsphJXYuK7cj5X2L_BGC-31">
          <mxGeometry width="19" height="19" as="geometry" />
        </mxCell>
        <mxCell id="dsphJXYuK7cj5X2L_BGC-41" value="Digital" style="rounded=0;whiteSpace=wrap;html=1;" vertex="1" parent="dsphJXYuK7cj5X2L_BGC-31">
          <mxGeometry y="19" width="95" height="26" as="geometry" />
        </mxCell>
        <mxCell id="dsphJXYuK7cj5X2L_BGC-42" value="&lt;font style=&quot;font-size: 8px;&quot;&gt;ANALOG&lt;/font&gt;" style="rounded=0;whiteSpace=wrap;html=1;" vertex="1" parent="dsphJXYuK7cj5X2L_BGC-31">
          <mxGeometry x="95" y="19" width="38" height="26" as="geometry" />
        </mxCell>
        <mxCell id="dsphJXYuK7cj5X2L_BGC-43" value="CONNECTOR 1" style="text;html=1;align=center;verticalAlign=middle;whiteSpace=wrap;rounded=0;" vertex="1" parent="dsphJXYuK7cj5X2L_BGC-31">
          <mxGeometry x="21.75" y="45" width="108.5" height="30" as="geometry" />
        </mxCell>
        <mxCell id="dsphJXYuK7cj5X2L_BGC-44" value="Block Diagram -- Team 102: Autonomous Plant Watering System" style="text;html=1;align=center;verticalAlign=middle;whiteSpace=wrap;rounded=0;" vertex="1" parent="1">
          <mxGeometry x="-1452.87" y="-715" width="389.75" height="30" as="geometry" />
        </mxCell>
        <mxCell id="dsphJXYuK7cj5X2L_BGC-45" style="edgeStyle=orthogonalEdgeStyle;rounded=0;orthogonalLoop=1;jettySize=auto;html=1;exitX=1;exitY=0;exitDx=0;exitDy=0;entryX=0;entryY=0.5;entryDx=0;entryDy=0;dashed=1;" edge="1" parent="1" source="dsphJXYuK7cj5X2L_BGC-46" target="dsphJXYuK7cj5X2L_BGC-58">
          <mxGeometry relative="1" as="geometry">
            <mxPoint x="-1763" y="-674.5" as="targetPoint" />
            <Array as="points">
              <mxPoint x="-971" y="-147" />
              <mxPoint x="-932" y="-147" />
              <mxPoint x="-932" y="-674" />
              <mxPoint x="-1733" y="-674" />
              <mxPoint x="-1733" y="-354" />
            </Array>
          </mxGeometry>
        </mxCell>
        <mxCell id="dsphJXYuK7cj5X2L_BGC-46" value="9V 3A Unregulated Power Supply&lt;div&gt;Part#:&lt;span style=&quot;background-color: transparent; color: light-dark(rgb(0, 0, 0), rgb(255, 255, 255));&quot;&gt;PJ-102AH&lt;/span&gt;&lt;span style=&quot;background-color: transparent; color: light-dark(rgb(0, 0, 0), rgb(255, 255, 255));&quot;&gt;&amp;nbsp;&lt;/span&gt;&lt;/div&gt;" style="rounded=0;whiteSpace=wrap;html=1;" vertex="1" parent="1">
          <mxGeometry x="-1091" y="-151" width="120" height="60" as="geometry" />
        </mxCell>
        <mxCell id="dsphJXYuK7cj5X2L_BGC-47" style="edgeStyle=orthogonalEdgeStyle;rounded=0;orthogonalLoop=1;jettySize=auto;html=1;dashed=1;entryX=0.983;entryY=0.5;entryDx=0;entryDy=0;entryPerimeter=0;" edge="1" parent="1" target="dsphJXYuK7cj5X2L_BGC-5">
          <mxGeometry relative="1" as="geometry">
            <mxPoint x="-932" y="-148" as="sourcePoint" />
            <mxPoint x="-1550.5" y="-608.61" as="targetPoint" />
            <Array as="points">
              <mxPoint x="-945" y="-148" />
              <mxPoint x="-945" y="-612" />
              <mxPoint x="-1550" y="-612" />
              <mxPoint x="-1550" y="-626" />
            </Array>
          </mxGeometry>
        </mxCell>
        <mxCell id="dsphJXYuK7cj5X2L_BGC-48" value="9V In" style="text;html=1;align=center;verticalAlign=middle;whiteSpace=wrap;rounded=0;" vertex="1" parent="1">
          <mxGeometry x="-1542.75" y="-634.5" width="60" height="30" as="geometry" />
        </mxCell>
        <mxCell id="dsphJXYuK7cj5X2L_BGC-49" value="RA3" style="rounded=0;whiteSpace=wrap;html=1;" vertex="1" parent="1">
          <mxGeometry x="-1400" y="-514" width="27" height="19" as="geometry" />
        </mxCell>
        <mxCell id="dsphJXYuK7cj5X2L_BGC-50" style="edgeStyle=orthogonalEdgeStyle;rounded=0;orthogonalLoop=1;jettySize=auto;html=1;" edge="1" parent="1" source="dsphJXYuK7cj5X2L_BGC-49" target="dsphJXYuK7cj5X2L_BGC-51">
          <mxGeometry relative="1" as="geometry">
            <Array as="points">
              <mxPoint x="-1545" y="-504.5" />
            </Array>
          </mxGeometry>
        </mxCell>
        <mxCell id="dsphJXYuK7cj5X2L_BGC-51" value="LED INDICATOR" style="rounded=0;whiteSpace=wrap;html=1;" vertex="1" parent="1">
          <mxGeometry x="-1594" y="-485" width="97.25" height="21" as="geometry" />
        </mxCell>
        <mxCell id="dsphJXYuK7cj5X2L_BGC-52" value="DIGITAL/PARALLEL&lt;div&gt;5V 1PIN&lt;/div&gt;" style="text;html=1;align=center;verticalAlign=middle;whiteSpace=wrap;rounded=0;" vertex="1" parent="1">
          <mxGeometry x="-1494.88" y="-499" width="60" height="30" as="geometry" />
        </mxCell>
        <mxCell id="dsphJXYuK7cj5X2L_BGC-53" value="DIGITAL/PARALLEL&amp;nbsp;&lt;div&gt;5V 1PIN&lt;/div&gt;" style="text;html=1;align=center;verticalAlign=middle;whiteSpace=wrap;rounded=0;" vertex="1" parent="1">
          <mxGeometry x="-1529.5" y="-562.5" width="60" height="30" as="geometry" />
        </mxCell>
        <mxCell id="dsphJXYuK7cj5X2L_BGC-54" style="edgeStyle=orthogonalEdgeStyle;rounded=0;orthogonalLoop=1;jettySize=auto;html=1;exitX=0.5;exitY=0;exitDx=0;exitDy=0;entryX=0.46;entryY=0.983;entryDx=0;entryDy=0;entryPerimeter=0;" edge="1" parent="1" source="dsphJXYuK7cj5X2L_BGC-7" target="dsphJXYuK7cj5X2L_BGC-5">
          <mxGeometry relative="1" as="geometry" />
        </mxCell>
        <mxCell id="dsphJXYuK7cj5X2L_BGC-55" value="Analog 0-5V 1PIN" style="text;html=1;align=center;verticalAlign=middle;whiteSpace=wrap;rounded=0;" vertex="1" parent="1">
          <mxGeometry x="-1053" y="-465" width="60" height="30" as="geometry" />
        </mxCell>
        <mxCell id="dsphJXYuK7cj5X2L_BGC-56" value="5V 1.5A Voltage Regulator&amp;nbsp;&lt;div&gt;L7805CV&lt;/div&gt;" style="rounded=0;whiteSpace=wrap;html=1;" vertex="1" parent="1">
          <mxGeometry x="-1101" y="-231" width="120" height="60" as="geometry" />
        </mxCell>
        <mxCell id="dsphJXYuK7cj5X2L_BGC-57" style="edgeStyle=orthogonalEdgeStyle;rounded=0;orthogonalLoop=1;jettySize=auto;html=1;exitX=0.25;exitY=1;exitDx=0;exitDy=0;entryX=0.5;entryY=0;entryDx=0;entryDy=0;" edge="1" parent="1" source="dsphJXYuK7cj5X2L_BGC-58" target="dsphJXYuK7cj5X2L_BGC-59">
          <mxGeometry relative="1" as="geometry" />
        </mxCell>
        <mxCell id="dsphJXYuK7cj5X2L_BGC-58" value="H Bridge&amp;nbsp;&lt;br&gt;FAN8100N" style="rounded=0;whiteSpace=wrap;html=1;" vertex="1" parent="1">
          <mxGeometry x="-1687.5" y="-384.5" width="99" height="60" as="geometry" />
        </mxCell>
        <mxCell id="dsphJXYuK7cj5X2L_BGC-59" value="&lt;h3 id=&quot;adafruit-2941-dc-motor-in-micro-servo-body&quot; style=&quot;box-sizing: inherit; font-weight: 400; letter-spacing: -0.01em; line-height: 1.5; margin: 1.6em 0px 0.8em;&quot;&gt;&lt;font style=&quot;color: light-dark(rgba(0, 0, 0, 0.87), rgb(255, 255, 255)); font-size: 12px;&quot;&gt;Adafruit 2941 Motor&lt;/font&gt;&lt;/h3&gt;" style="rounded=0;whiteSpace=wrap;html=1;align=center;" vertex="1" parent="1">
          <mxGeometry x="-1733" y="-284.5" width="99" height="47" as="geometry" />
        </mxCell>
        <mxCell id="dsphJXYuK7cj5X2L_BGC-60" style="edgeStyle=orthogonalEdgeStyle;rounded=0;orthogonalLoop=1;jettySize=auto;html=1;exitX=0.5;exitY=1;exitDx=0;exitDy=0;" edge="1" parent="1">
          <mxGeometry relative="1" as="geometry">
            <mxPoint x="-1539" y="-172.5" as="sourcePoint" />
            <mxPoint x="-1539" y="-172.5" as="targetPoint" />
          </mxGeometry>
        </mxCell>
        <mxCell id="dsphJXYuK7cj5X2L_BGC-61" value="&lt;h3 id=&quot;adafruit-2941-dc-motor-in-micro-servo-body&quot; style=&quot;box-sizing: inherit; font-weight: 400; letter-spacing: -0.01em; line-height: 1.5; margin: 1.6em 0px 0.8em;&quot;&gt;&lt;font style=&quot;color: light-dark(rgba(0, 0, 0, 0.87), rgb(255, 255, 255)); font-size: 12px;&quot;&gt;Adafruit 2941 Motor&lt;/font&gt;&lt;/h3&gt;" style="rounded=0;whiteSpace=wrap;html=1;align=center;" vertex="1" parent="1">
          <mxGeometry x="-1613" y="-284.5" width="99" height="47" as="geometry" />
        </mxCell>
        <mxCell id="dsphJXYuK7cj5X2L_BGC-62" value="RB3" style="rounded=0;whiteSpace=wrap;html=1;" vertex="1" parent="1">
          <mxGeometry x="-1400" y="-534.5" width="27" height="19" as="geometry" />
        </mxCell>
        <mxCell id="dsphJXYuK7cj5X2L_BGC-63" value="RA5" style="rounded=0;whiteSpace=wrap;html=1;" vertex="1" parent="1">
          <mxGeometry x="-1400" y="-469" width="27" height="14.5" as="geometry" />
        </mxCell>
        <mxCell id="dsphJXYuK7cj5X2L_BGC-64" value="RA6" style="rounded=0;whiteSpace=wrap;html=1;" vertex="1" parent="1">
          <mxGeometry x="-1400" y="-454.5" width="27" height="19.5" as="geometry" />
        </mxCell>
        <mxCell id="dsphJXYuK7cj5X2L_BGC-65" style="edgeStyle=orthogonalEdgeStyle;rounded=0;orthogonalLoop=1;jettySize=auto;html=1;exitX=0;exitY=0.5;exitDx=0;exitDy=0;entryX=1;entryY=0.133;entryDx=0;entryDy=0;entryPerimeter=0;" edge="1" parent="1" source="dsphJXYuK7cj5X2L_BGC-63" target="dsphJXYuK7cj5X2L_BGC-58">
          <mxGeometry relative="1" as="geometry">
            <Array as="points">
              <mxPoint x="-1453" y="-461.5" />
              <mxPoint x="-1453" y="-444.5" />
              <mxPoint x="-1573" y="-444.5" />
              <mxPoint x="-1573" y="-376.5" />
            </Array>
          </mxGeometry>
        </mxCell>
        <mxCell id="dsphJXYuK7cj5X2L_BGC-66" style="edgeStyle=orthogonalEdgeStyle;rounded=0;orthogonalLoop=1;jettySize=auto;html=1;exitX=0;exitY=0.5;exitDx=0;exitDy=0;entryX=0.99;entryY=0.403;entryDx=0;entryDy=0;entryPerimeter=0;" edge="1" parent="1" source="dsphJXYuK7cj5X2L_BGC-64" target="dsphJXYuK7cj5X2L_BGC-58">
          <mxGeometry relative="1" as="geometry">
            <Array as="points">
              <mxPoint x="-1443" y="-444.5" />
              <mxPoint x="-1443" y="-434.5" />
              <mxPoint x="-1563" y="-434.5" />
              <mxPoint x="-1563" y="-360.5" />
            </Array>
          </mxGeometry>
        </mxCell>
        <mxCell id="dsphJXYuK7cj5X2L_BGC-67" value="DIGITAL/PARALLEL&lt;div&gt;5V 1PIN&lt;/div&gt;" style="text;html=1;align=center;verticalAlign=middle;whiteSpace=wrap;rounded=0;" vertex="1" parent="1">
          <mxGeometry x="-1523" y="-435" width="60" height="30" as="geometry" />
        </mxCell>
        <mxCell id="dsphJXYuK7cj5X2L_BGC-68" value="9V In" style="text;html=1;align=center;verticalAlign=middle;whiteSpace=wrap;rounded=0;" vertex="1" parent="1">
          <mxGeometry x="-1733" y="-417.5" width="60" height="30" as="geometry" />
        </mxCell>
        <mxCell id="dsphJXYuK7cj5X2L_BGC-69" style="edgeStyle=orthogonalEdgeStyle;rounded=0;orthogonalLoop=1;jettySize=auto;html=1;exitX=0.75;exitY=1;exitDx=0;exitDy=0;entryX=0.5;entryY=0;entryDx=0;entryDy=0;" edge="1" parent="1" source="dsphJXYuK7cj5X2L_BGC-58" target="dsphJXYuK7cj5X2L_BGC-61">
          <mxGeometry relative="1" as="geometry" />
        </mxCell>
        <mxCell id="dsphJXYuK7cj5X2L_BGC-70" style="edgeStyle=orthogonalEdgeStyle;rounded=0;orthogonalLoop=1;jettySize=auto;html=1;exitX=0.5;exitY=0;exitDx=0;exitDy=0;entryX=0.5;entryY=1;entryDx=0;entryDy=0;" edge="1" parent="1" source="dsphJXYuK7cj5X2L_BGC-40" target="dsphJXYuK7cj5X2L_BGC-25">
          <mxGeometry relative="1" as="geometry">
            <Array as="points">
              <mxPoint x="-1415" y="-94.5" />
              <mxPoint x="-1415" y="-144.5" />
              <mxPoint x="-1293" y="-144.5" />
            </Array>
          </mxGeometry>
        </mxCell>
        <mxCell id="dsphJXYuK7cj5X2L_BGC-71" style="edgeStyle=orthogonalEdgeStyle;rounded=0;orthogonalLoop=1;jettySize=auto;html=1;exitX=0.5;exitY=0;exitDx=0;exitDy=0;" edge="1" parent="1" source="dsphJXYuK7cj5X2L_BGC-15" target="dsphJXYuK7cj5X2L_BGC-30">
          <mxGeometry relative="1" as="geometry">
            <Array as="points">
              <mxPoint x="-1145" y="-94.5" />
              <mxPoint x="-1145" y="-144.5" />
              <mxPoint x="-1185" y="-144.5" />
            </Array>
          </mxGeometry>
        </mxCell>
        <mxCell id="dsphJXYuK7cj5X2L_BGC-72" style="edgeStyle=orthogonalEdgeStyle;rounded=0;orthogonalLoop=1;jettySize=auto;html=1;exitX=0.5;exitY=0;exitDx=0;exitDy=0;entryX=1;entryY=0.5;entryDx=0;entryDy=0;dashed=1;dashPattern=8 4 1 4;" edge="1" parent="1" source="dsphJXYuK7cj5X2L_BGC-37" target="dsphJXYuK7cj5X2L_BGC-22">
          <mxGeometry relative="1" as="geometry">
            <Array as="points">
              <mxPoint x="-1320" y="-279.5" />
              <mxPoint x="-1065" y="-279.5" />
              <mxPoint x="-1065" y="-481.5" />
            </Array>
          </mxGeometry>
        </mxCell>
      </root>
    </mxGraphModel>
  </diagram>
</mxfile>
